<svg xmlns="http://www.w3.org/2000/svg" xmlns:xlink="http://www.w3.org/1999/xlink" width="20" height="20" viewBox="0 0 20 20">
    <defs>
        <clipPath id="clip-_7s">
            <rect width="20" height="20"/>
        </clipPath>
    </defs>
    <g id="_7s" data-name="7s-favicon-20x20" clip-path="url(#clip-_7s)">
        <rect width="20" height="20" fill="#fff"/>
        <rect id="Rectangle_1" data-name="Rectangle 1" width="20" height="20" fill="#0a9ad7"/>
        <path id="Path_16" data-name="Path 16" d="M19.955,5.175a1.706,1.706,0,0,0-.192-.433,3.538,3.538,0,0,0-.417-.55,8.484,8.484,0,0,0-.779-.748c-.479-.408-.874-.7-1.143-.893L16.9,2.163h0l-.309-.2-.056-.034a12.643,12.643,0,0,0-1.208-.689,5.086,5.086,0,0,0-.51-.222,3.068,3.068,0,0,0-.309-.087A1.446,1.446,0,0,0,14.3.893a1.291,1.291,0,0,0-.244,0,1.888,1.888,0,0,0-.785.266,4.851,4.851,0,0,0-.572.411c-.139.111-.275.232-.42.361-.284-.278-.575-.556-.884-.837A6.556,6.556,0,0,0,10.532.4,2.521,2.521,0,0,0,9.914.1,1.78,1.78,0,0,0,9.695.034L9.339,0H9.256A1.625,1.625,0,0,0,9.03.025,2.373,2.373,0,0,0,8.3.309a4.325,4.325,0,0,0-.519.346c-.256.2-.519.426-.825.717L5.477,2.781c-.46.442-.958.908-1.483,1.322l-.077.062h-.8a8.821,8.821,0,0,0-1.05.034,4.1,4.1,0,0,0-1.152.278,1.783,1.783,0,0,0-.649.442,1.078,1.078,0,0,0-.278.593.961.961,0,0,0,.263.772,1.2,1.2,0,0,0,.46.309,1.616,1.616,0,0,0,.4.1,2.187,2.187,0,0,0,.309.022h.049L1.773,6.7A4.39,4.39,0,0,0,2.944,6.42a7.978,7.978,0,0,0,1.764-.973c1.02,0,2.092-.019,3.111-.105A11.052,11.052,0,0,0,9.6,5.061a6.417,6.417,0,0,0,1.644-.643,5.364,5.364,0,0,0,.7-.476l.108-.087a11.976,11.976,0,0,0,1.254.893,14.432,14.432,0,0,0,3.161,1.431,8.9,8.9,0,0,0,1.545.352,3.723,3.723,0,0,0,.822.015,1.807,1.807,0,0,0,.482-.114,1.017,1.017,0,0,0,.618-1.27Zm-9.34-1.854a6.8,6.8,0,0,1-2.9.76c-.457.037-.927.059-1.387.071l.213-.185c.328-.287.652-.581.973-.871.185-.17.371-.337.553-.5l.077-.071c.222-.195.429-.38.643-.538a1.39,1.39,0,0,1,.531-.309H9.4a1.2,1.2,0,0,1,.247.124,6.451,6.451,0,0,1,.67.516c.207.179.414.365.618.55l.139.124a4.165,4.165,0,0,1-.463.318Zm7.573,1.931a7.381,7.381,0,0,1-1.3-.346A12.458,12.458,0,0,1,14.11,3.485c-.309-.222-.618-.445-.9-.677l.287-.244a3.3,3.3,0,0,1,.417-.309.689.689,0,0,1,.247-.093,1.007,1.007,0,0,1,.235.059,3.726,3.726,0,0,1,.368.161,11.163,11.163,0,0,1,1.084.64l.049.031.352.238.439.309c.25.179.618.451,1.066.822a6.584,6.584,0,0,1,.661.618,2.682,2.682,0,0,1,.195.238A3.3,3.3,0,0,1,18.188,5.252ZM1.4,5.645a.556.556,0,0,1-.2-.049.865.865,0,0,1,.278-.188,2.892,2.892,0,0,1,.859-.222q.232-.028.463-.037h.383a4.672,4.672,0,0,1-.485.238h0a3.346,3.346,0,0,1-.871.247l-.229.019a1.409,1.409,0,0,1-.2-.006Z" transform="translate(0.019 6)" fill="#fff"/>
    </g>
</svg>